<?xml version="1.0" encoding="UTF-8"?>
<svg id="Layer_2" data-name="Layer 2" xmlns="http://www.w3.org/2000/svg" viewBox="0 0 519.1 202.22">
  <defs>
    <style>
      .cls-1 {
        fill: #9a0a14;
      }
    </style>
  </defs>
  <g id="Layer_1-2" data-name="Layer 1">
    <g>
      <rect class="cls-1" x="252.88" y="186.13" width="13.33" height="13.33" transform="translate(212.35 -127.06) rotate(45)"/>
      <path class="cls-1" d="M104.37,192.8c99.7-1.76,200.94-1.71,300.64-.2,0,0,9.7.2,9.7.2l-9.7.2c-99.71,1.52-200.94,1.56-300.64-.2h0Z"/>
    </g>
    <g>
      <g>
        <path class="cls-1" d="M142.36,1.63v-.66h18.43c4.67,0,8.06.1,10.14.31,2.09.21,4.23.89,6.42,2.05,2.19,1.16,3.84,2.74,4.96,4.72,1.12,1.99,1.68,4.42,1.68,7.3,0,3.3-.99,6.44-2.98,9.42-1.98,2.99-4.79,5.51-8.4,7.57l4.59,7.05c1,1.76,3.65,5.63,7.96,11.59s7.64,9.6,9.99,10.91c2.35,1.31,4.63,1.96,6.84,1.96s4.67-.84,7.5-2.51l.26.88c-3.53,2.88-8.11,4.32-13.75,4.32-3.76,0-6.99-1.11-9.69-3.34s-7.41-8.33-14.11-18.32c-.06-.06-.09-.12-.09-.18l-6.53-10.05-5.79.18h-5.26v24.84c0,2,.26,3.43.79,4.29.52.87,1.79,1.3,3.8,1.3v.66h-16.76v-.66c2.09-.09,3.39-.53,3.9-1.32.51-.79.77-2.41.77-4.85V7.49c0-1.67-.22-3.06-.66-4.16-.44-1.1-1.78-1.67-4.01-1.7ZM154.53,2.69v30.47h6.81c5.36,0,9.34-1.26,11.93-3.79,2.59-2.53,3.89-5.85,3.89-9.97s-1.27-7.78-3.82-11.36-7.03-5.36-13.46-5.36h-5.35Z"/>
        <path class="cls-1" d="M231.69.97v.66c-.85-.09-1.8.04-2.84.4-1.04.35-1.66.87-1.85,1.54-.19.68-.29,2.28-.29,4.8v49.85c0,2.7.11,4.36.33,4.96.22.6.65,1.1,1.28,1.5.63.4,1.76.59,3.37.59v.66h-17.33v-.66c2.18,0,3.53-.42,4.06-1.26s.79-2.74.79-5.71V8.95c0-3.08-.29-5.1-.88-6.06-.59-.96-1.91-1.37-3.97-1.26v-.66h17.33Z"/>
        <path class="cls-1" d="M292.44.97h12.57v.66c-1.91.06-3.23.46-3.97,1.21-.74.75-1.1,2.33-1.1,4.74v59.14l-51.82-55.18v48.04c0,1.53.12,2.66.35,3.39.24.73.57,1.23,1.01,1.5s1.54.53,3.31.79v.66h-12.48v-.66c2.23,0,3.62-.4,4.17-1.19.54-.79.82-2.69.82-5.69V14.46c0-3.85-.54-6.99-1.61-9.43-1.07-2.44-3.55-3.57-7.43-3.39v-.66h12.22l48.69,51.84V6.97c0-2.47-.44-3.97-1.32-4.52-.88-.54-2.01-.82-3.4-.82v-.66Z"/>
        <path class="cls-1" d="M376.08,65.27v.66h-26.2c-5.03,0-9.43-.54-13.21-1.63-3.78-1.09-7.63-3.15-11.55-6.2-3.93-3.04-7.1-6.83-9.53-11.36-2.43-4.53-3.64-9.16-3.64-13.89,0-5.17,1.52-10.33,4.56-15.48,3.04-5.14,7.37-9.33,12.99-12.55,5.62-3.22,11.98-4.83,19.1-4.83,6.38,0,13.13,1.41,20.24,4.23l2.69,7.5h-.65c-2.26-2.88-5.36-5.27-9.28-7.17s-8.29-2.84-13.11-2.84c-8.38,0-15.24,3.15-20.58,9.46s-8.02,14.13-8.02,23.48c0,3.88.44,7.34,1.32,10.39s2.54,6.04,4.96,9c2.43,2.96,5.03,5.13,7.81,6.53,2.78,1.4,5.89,2.37,9.33,2.91,3.44.54,6.17.79,8.2.73l3.48-.09c3.94-.15,6.4-.51,7.39-1.1.99-.59,1.48-2.09,1.48-4.5v-9.83c0-1.91-.4-3.2-1.19-3.86-.79-.66-1.93-.95-3.4-.86v-.66h16.8v.66c-1.88,0-3.14.37-3.77,1.1-.63.73-.95,2.14-.95,4.22v10.21c0,2.05.27,3.53.82,4.42.54.9,1.54,1.34,2.98,1.34h.93Z"/>
      </g>
      <g>
        <path class="cls-1" d="M56.19,93.66l2.43,6.88h-.65c-6.29-6.26-13.69-9.39-22.21-9.39s-15.99,2.63-21.44,7.89c-5.45,5.26-8.18,11.63-8.18,19.1,0,4.62,1.21,9.92,3.64,15.92s6.25,10.93,11.49,14.8c5.23,3.87,11.57,5.8,19.01,5.8,4.88,0,9.67-.79,14.35-2.36,4.69-1.57,8.18-3.68,10.47-6.33l.57.18-4.54,6.97c-7.35,1.59-12.12,2.53-14.31,2.82-2.19.29-5.12.44-8.8.44-13.61,0-23.35-3.15-29.22-9.46-5.87-6.31-8.8-13.85-8.8-22.65,0-5.94,1.51-11.65,4.52-17.13,3.01-5.48,7.36-9.81,13.03-12.97,5.67-3.16,12.16-4.74,19.45-4.74,3.65,0,6.8.33,9.46.99,2.66.66,4.87,1.35,6.64,2.05l2.91,1.1c.09.03.15.06.18.09Z"/>
        <path class="cls-1" d="M70.81,91.15v-.75h40.84v8.95h-.66c-.88-3.32-1.62-5.28-2.23-5.87-.6-.59-2.08-.88-4.43-.88h-21.43v29.15h19.89c1.97,0,3.22-.18,3.75-.55.53-.37.81-.9.84-1.61h.66v6.13h-.66c-.15-.85-.49-1.43-1.04-1.72-.54-.29-1.55-.44-3.02-.44h-20.42v20.07c0,3.03.28,5.21.84,6.55.56,1.34,1.45,2.18,2.66,2.51,1.22.34,3.06.51,5.53.51h11.45c3.64,0,5.97-.12,6.98-.37,1.01-.25,1.87-.74,2.58-1.49.7-.75,1.25-2.37,1.63-4.89h.66v8.91h-44.41v-.66c1.5-.09,2.64-.37,3.42-.86.78-.48,1.17-1.74,1.17-3.77v-52.45c0-2.38-.21-4.05-.62-5.02-.41-.97-1.74-1.46-3.97-1.46Z"/>
        <path class="cls-1" d="M120.66,91.06v-.66h18.43c4.67,0,8.06.1,10.14.31,2.09.21,4.23.89,6.42,2.05,2.19,1.16,3.84,2.74,4.96,4.72,1.12,1.99,1.68,4.42,1.68,7.3,0,3.3-.99,6.44-2.98,9.42-1.98,2.99-4.79,5.51-8.4,7.57l4.59,7.05c1,1.76,3.65,5.63,7.96,11.59s7.64,9.6,9.99,10.91c2.35,1.31,4.63,1.96,6.84,1.96s4.67-.84,7.5-2.51l.26.88c-3.53,2.88-8.11,4.32-13.75,4.32-3.76,0-6.99-1.11-9.69-3.34s-7.41-8.33-14.11-18.32c-.06-.06-.09-.12-.09-.18l-6.53-10.05-5.79.18h-5.26v24.84c0,2,.26,3.43.79,4.29.52.87,1.79,1.3,3.8,1.3v.66h-16.76v-.66c2.09-.09,3.39-.53,3.9-1.32.51-.79.77-2.41.77-4.85v-51.61c0-1.67-.22-3.06-.66-4.16-.44-1.1-1.78-1.67-4.01-1.7ZM132.83,92.12v30.47h6.81c5.36,0,9.34-1.26,11.93-3.79,2.59-2.53,3.89-5.85,3.89-9.97s-1.27-7.78-3.82-11.36-7.03-5.36-13.46-5.36h-5.35Z"/>
        <path class="cls-1" d="M193.1,91.15v-.75h40.84v8.95h-.66c-.88-3.32-1.62-5.28-2.23-5.87-.6-.59-2.08-.88-4.43-.88h-21.43v29.15h19.89c1.97,0,3.22-.18,3.75-.55.53-.37.81-.9.84-1.61h.66v6.13h-.66c-.15-.85-.49-1.43-1.04-1.72-.54-.29-1.55-.44-3.02-.44h-20.42v20.07c0,3.03.28,5.21.84,6.55.56,1.34,1.45,2.18,2.66,2.51,1.22.34,3.06.51,5.53.51h11.45c3.64,0,5.97-.12,6.98-.37,1.01-.25,1.87-.74,2.58-1.49.7-.75,1.25-2.37,1.63-4.89h.66v8.91h-44.41v-.66c1.5-.09,2.64-.37,3.42-.86.78-.48,1.17-1.74,1.17-3.77v-52.45c0-2.38-.21-4.05-.62-5.02-.41-.97-1.74-1.46-3.97-1.46Z"/>
        <path class="cls-1" d="M302.34,90.4h10.25v.66c-3.47.18-5.2,1.99-5.2,5.43,0,.74.09,1.75.26,3.05l6.83,49.21c.41,2.45.87,4.02,1.39,4.71.51.69,1.58,1.1,3.2,1.25v.66h-14.6v-.66c1.95.06,2.92-.88,2.92-2.8,0-.44-.09-1.3-.26-2.58l-6.67-47.71-23.29,53.76h-.44l-23.42-53.67-6.59,47.98c-.12.73-.18,1.56-.18,2.49,0,1.69.99,2.54,2.97,2.54v.66h-9.92v-.66c1.5,0,2.46-.18,2.89-.55.43-.37.76-.96.99-1.76.23-.81.41-1.71.53-2.71l7.43-52.48c-1.21-2.91-2.42-4.66-3.63-5.25-1.21-.59-2.37-.88-3.49-.88v-.66h12.25l22.85,53.13,22.92-53.13Z"/>
        <path class="cls-1" d="M359.62,89.43c9.11,0,16.57,2.77,22.36,8.31,5.79,5.54,8.69,12.46,8.69,20.75,0,10.67-3.35,19.65-10.05,26.95-6.7,7.29-15.6,10.94-26.68,10.94-9,0-16.36-2.94-22.1-8.82-5.73-5.88-8.6-12.94-8.6-21.17,0-5.56,1.38-11.26,4.15-17.11,2.76-5.85,6.92-10.62,12.48-14.31,5.56-3.69,12.14-5.53,19.76-5.53ZM359.36,152.93c4.47,0,8.88-1.2,13.23-3.59,4.35-2.4,7.78-5.7,10.28-9.9,2.5-4.2,3.75-8.53,3.75-12.97,0-6.29-1.68-12.01-5.05-17.16-3.37-5.15-7.73-9.17-13.1-12.08-5.37-2.91-10.33-4.37-14.88-4.37-6.44,0-12.28,2.43-17.53,7.28s-7.87,10.88-7.87,18.08c0,9.2,3.2,17.29,9.61,24.26,6.41,6.97,13.6,10.45,21.57,10.45Z"/>
        <path class="cls-1" d="M451.38,90.4h12.57v.66c-1.91.06-3.24.46-3.97,1.21-.74.75-1.1,2.33-1.1,4.74v59.14l-51.82-55.18v48.04c0,1.53.12,2.66.35,3.39.23.73.57,1.23,1.01,1.5.44.26,1.54.53,3.31.79v.66h-12.48v-.66c2.23,0,3.62-.4,4.17-1.19.54-.79.82-2.69.82-5.69v-43.94c0-3.85-.54-6.99-1.61-9.43-1.07-2.44-3.55-3.57-7.43-3.39v-.66h12.22l48.69,51.84v-45.85c0-2.47-.44-3.97-1.32-4.52-.88-.54-2.01-.82-3.4-.82v-.66Z"/>
        <path class="cls-1" d="M509.35,90.4h9.75v.66c-1.23.09-2.25.38-3.04.88-.79.5-1.71,1.53-2.73,3.09l-15.88,24.08v29.74c0,2.4.31,3.98.93,4.73.62.75,1.97,1.12,4.05,1.12v.66h-17.38v-.66c3.32.21,4.98-1.1,4.98-3.92l-.09-1.85v-27.46l-15.92-26.35c-1.68-2.79-3.54-4.15-5.6-4.06v-.66h15.35v.66c-1.43,0-2.15.54-2.15,1.63,0,.56.37,1.42,1.1,2.6l13.1,21.62,14.31-21.79c.26-.23.56-.67.88-1.3s.49-1.07.49-1.3c0-.97-.63-1.46-1.9-1.46h-.26v-.66Z"/>
      </g>
    </g>
  </g>
</svg>